PathFileType	4	(X/Y/Z)	T00_JumpTrial_0-2667.trc
DataRate	CameraRate	NumFrames	NumMarkers	Units	OrigDataRate	OrigDataStartFrame	OrigNumFrames
30	30	6	21	m	30	666	2667
Frame#	Time	RHip			RKnee			RAnkle			RBigToe			RSmallToe			RHeel			LHip			LKnee			LAnkle			LBigToe			LSmallToe			LHeel			Neck			Head			Nose			RShoulder			RElbow			RWrist			LShoulder			LElbow			LWrist		
		X1	Y1	Z1	X2	Y2	Z2	X3	Y3	Z3	X4	Y4	Z4	X5	Y5	Z5	X6	Y6	Z6	X7	Y7	Z7	X8	Y8	Z8	X9	Y9	Z9	X10	Y10	Z10	X11	Y11	Z11	X12	Y12	Z12	X13	Y13	Z13	X14	Y14	Z14	X15	Y15	Z15	X16	Y16	Z16	X17	Y17	Z17	X18	Y18	Z18	X19	Y19	Z19	X20	Y20	Z20	X21	Y21	Z21
667	22.23333333333333	-15.348199197712265	3.817099801806817	6.415607124962163				-6.120093958109068	-0.8882405327819849	3.527808197697996																-5.604662557288023	-0.9551496494965628	3.258778032467834													-6.606944714555733	-0.8365689048018116	3.834347312303862	-5.822833441136812	-0.8958748263363071	3.361504382542427	-11.841605980489097	1.6765932125190035	6.237788352484887	-14.764239284943166	3.685891817958418	5.632427015749254				-9.100269365404278	0.12064281429789016	4.832971150881871	-15.010518163149632	3.8605465622001294	7.419801686160146	-12.710440453842562	2.9611067442169636	4.656683564526726
668	22.266666666666666	-15.37006837053284	3.822264057509709	6.427580794400427				-6.334737694641041	-0.8595891472515131	3.559662275686662																-5.87415743900381	-0.9138458702759681	3.2977633171019223													-6.815118866482729	-0.8071916391461145	3.862075961737943	-5.734900919301056	-0.8919158641423505	3.330319267237817	-12.040392783616877	1.725018587212334	6.294545726914315	-14.129723531555655	3.4907039589044535	5.493595651148122				-9.24732255460496	0.16284518906133885	4.8666023839990835	-16.223465075505764	4.230585244897316	7.752806074036599	-13.37812407339413	3.127893849870693	4.812967044325934
669	22.3	-15.453668355002394	3.849613381255851	6.450573397065035				-6.50980042532883	-0.8378792837619559	3.5808266620905433																-6.163580198930979	-0.8738296136627706	3.336495533406781													-6.915415572667852	-0.7932625840014912	3.8713085515812686	-5.70185791215033	-0.878793758775167	3.3136505131964333	-12.091514292898859	1.7376346853796742	6.30852554310252	-13.579645711270135	3.3196507183573445	5.371985777041093				-9.38712872431463	0.19686922711422605	4.901178175770367	-17.25923937642792	4.538230056157358	8.018306246448015	-13.823146891448184	3.2302844279037335	4.923770521270082
670	22.33333333333333	-15.52336474099587	3.8677146229204307	6.471762426570956				-6.636596498397309	-0.8242618645403654	3.5957824154115094																-6.388140999697891	-0.8476449107600895	3.365778393658095													-6.9283225354422875	-0.7909520066953509	3.868015411822485	-5.692593350519831	-0.8694169070224192	3.302791651888299	-12.08156835916305	1.7372283424214026	6.306168551251493	-13.232360782439931	3.1932933295916914	5.309326000659059				-9.431843324996686	0.19951822705072872	4.911736183632982	-17.488097009356288	4.593018606213585	8.027678726796022	-14.24355041024794	3.316594738148913	5.030730587541201
671	22.366666666666667	-15.532708446854897	3.854204005888424	6.484552755017516				-6.695082416911886	-0.8221599067579748	3.603427564480812																-6.512038107140427	-0.8434923416814701	3.381027668877075													-6.913459284157603	-0.7913958199277291	3.864196452486002	-5.73889088327686	-0.8671512745642357	3.3032929978629824	-12.003215506753733	1.7191902005772073	6.284888619424782	-13.261844556450514	3.141481216977617	5.351025479295954				-9.41464125742138	0.17845840525446732	4.90583827664563	-17.36358504270966	4.522991974514523	7.937809046901123	-14.746507491332789	3.424066481486341	5.15499773474387
672	22.4	-15.482167124650562	3.79506204040169	6.484156614779415				-6.672805829796982	-0.8333036384543218	3.598513333610933																-6.552402190450665	-0.8596018706573249	3.3826505803867737													-6.8882902310758105	-0.7948201342457831	3.8600491786418556	-5.884654522528205	-0.8644916978676356	3.325717689740897	-11.763659359890717	1.652994020280663	6.216092273502395	-13.677557214146603	3.1657903776587237	5.494451371326929				-9.380243986167441	0.14822843441015143	4.895024627494144	-17.471466809701838	4.500869239953563	7.939182891527362	-15.006516475932617	3.47055643416822	5.231016108330504
